<?xml version="1.0" encoding="UTF-8" standalone="no"?>
<!-- Created with Inkscape (http://www.inkscape.org/) -->

<svg
   width="297mm"
   height="210mm"
   viewBox="0 0 297 210"
   version="1.1"
   id="svg1"
   inkscape:version="1.4.2 (f4327f4, 2025-05-13)"
   sodipodi:docname="desert.svg"
   inkscape:export-filename="desert.svg"
   inkscape:export-xdpi="145.14285"
   inkscape:export-ydpi="145.14285"
   xmlns:inkscape="http://www.inkscape.org/namespaces/inkscape"
   xmlns:sodipodi="http://sodipodi.sourceforge.net/DTD/sodipodi-0.dtd"
   xmlns="http://www.w3.org/2000/svg"
   xmlns:svg="http://www.w3.org/2000/svg">
  <sodipodi:namedview
     id="namedview1"
     pagecolor="#ffffff"
     bordercolor="#000000"
     borderopacity="0.25"
     inkscape:showpageshadow="2"
     inkscape:pageopacity="0.0"
     inkscape:pagecheckerboard="0"
     inkscape:deskcolor="#d1d1d1"
     inkscape:document-units="mm"
     inkscape:zoom="0.97548401"
     inkscape:cx="443.36965"
     inkscape:cy="500.77705"
     inkscape:window-width="2560"
     inkscape:window-height="1334"
     inkscape:window-x="1285"
     inkscape:window-y="86"
     inkscape:window-maximized="1"
     inkscape:current-layer="layer1">
    <inkscape:page
       x="0"
       y="0"
       width="297"
       height="210"
       id="page2"
       margin="0"
       bleed="0" />
  </sodipodi:namedview>
  <defs
     id="defs1" />
  <rect
     style="fill:#160224;fill-opacity:1;stroke:#000000;stroke-width:0.0947208;stroke-dasharray:none;stroke-opacity:1"
     id="rect5"
     width="297"
     height="210"
     x="0"
     y="0" />
  <g
     inkscape:label="Layer 1"
     inkscape:groupmode="layer"
     id="layer1">
    <g
       id="g16"
       transform="translate(3.7973003,34.614985)">
      <g
         id="g14"
         transform="matrix(1.1274275,0,0,1.1274275,-55.979226,-143.80527)"
         style="stroke:none;stroke-width:0.887086;stroke-dasharray:none">
        <path
           style="fill:#570a23;fill-opacity:1;stroke:none;stroke-width:0.887086;stroke-dasharray:none;stroke-opacity:1"
           d="m 35.260191,260.92602 c 0,0 17.90137,-5.15342 43.939727,-19.25753 26.038352,-14.10411 30.920542,-8.67945 30.920542,-8.67945 0,0 8.40822,4.61096 13.83288,10.30685 5.42466,5.69589 8.8194,7.20703 18.9863,11.39178 10.1669,4.18475 29.29315,20.34246 29.29315,20.34246 l 1.08493,33.36165 -93.84657,5.42465 -36.073973,14.91781 H 15.731424 l 19.528767,-69.97808"
           id="path12" />
        <path
           id="path13"
           style="fill:#3b0626;fill-opacity:1;stroke:none;stroke-width:0.887086;stroke-dasharray:none;stroke-opacity:1"
           d="m 105.75013,231.96569 c -0.48521,0.008 -1.01984,0.0404 -1.60817,0.1018 0.0141,0.006 18.71448,8.24989 -12.736687,21.80642 -31.463014,13.56165 42.583637,2.71219 14.646647,17.90123 -27.936979,15.18904 -31.19189,20.34243 -31.19189,20.34243 0,0 0.167607,7.50346 34.44699,12.74806 7.63964,1.16884 8.42497,3.70305 5.03225,6.93549 l 58.97832,-3.40909 -1.08469,-33.36179 c 0,0 -19.1264,-16.15768 -29.2933,-20.34243 -10.1669,-4.18475 -13.56178,-5.69618 -18.98644,-11.39207 -5.42466,-5.69589 -13.83275,-10.30686 -13.83275,-10.30686 0,0 -0.97379,-1.08183 -4.37028,-1.02319 z" />
      </g>
      <g
         id="g15"
         transform="translate(0,17.256165)"
         style="stroke:none">
        <path
           style="fill:#790c30;fill-opacity:1;stroke:none;stroke-width:0.0947208;stroke-dasharray:none;stroke-opacity:1"
           d="m 0,175.48767 c 0,0 49.906848,-40.68493 81.09863,-43.66849 31.19178,-2.98357 53.16164,-29.02192 53.16164,-29.02192 0,0 9.22192,-14.375342 41.2274,-19.257534 32.00548,-4.882192 9.49315,-22.783562 60.48493,17.358904 C 286.96438,141.04109 297,142.93972 297,142.93972 V 210 H 0 Z"
           id="path9" />
        <path
           id="path10"
           style="fill:#4b0730;fill-opacity:1;stroke:none;stroke-width:0.0947208;stroke-dasharray:none;stroke-opacity:1"
           d="m 198.69071,75.33442 -0.49196,0.02067 c 0,0 22.31347,31.78191 -26.50845,45.61479 -48.82192,13.83288 11.93451,32.00555 42.04136,37.15897 30.10685,5.15343 -13.83309,20.34248 -52.07693,24.68221 -38.24383,4.33972 -43.12605,27.18904 -43.12605,27.18904 h 178.47128 v -67.0605 c 0,0 -10.0355,-1.89839 -61.02728,-42.04085 C 210.6206,80.940734 203.43764,75.33041 198.69071,75.33442 Z" />
      </g>
    </g>
    <circle
       style="fill:#fee6b3;fill-opacity:1;stroke:none;stroke-width:0.0947207;stroke-dasharray:none;stroke-opacity:1"
       id="path11"
       cx="43.970093"
       cy="107.87021"
       r="19.335258" />
  </g>
</svg>
