<?xml version="1.0" encoding="UTF-8" standalone="no"?>
<!-- Created with Inkscape (http://www.inkscape.org/) -->

<svg
   width="1428.4565mm"
   height="889.90839mm"
   viewBox="0 0 1428.4565 889.90839"
   version="1.1"
   id="svg1"
   xmlns:inkscape="http://www.inkscape.org/namespaces/inkscape"
   xmlns:sodipodi="http://sodipodi.sourceforge.net/DTD/sodipodi-0.dtd"
   xmlns:xlink="http://www.w3.org/1999/xlink"
   xmlns="http://www.w3.org/2000/svg"
   xmlns:svg="http://www.w3.org/2000/svg">
  <sodipodi:namedview
     id="namedview1"
     pagecolor="#ffffff"
     bordercolor="#000000"
     borderopacity="0.25"
     inkscape:showpageshadow="2"
     inkscape:pageopacity="0.0"
     inkscape:pagecheckerboard="0"
     inkscape:deskcolor="#d1d1d1"
     inkscape:document-units="mm"
     showgrid="true">
    <inkscape:grid
       id="grid6"
       units="mm"
       originx="-600.00003"
       originy="-55.045815"
       spacingx="100"
       spacingy="100"
       empcolor="#0099e5"
       empopacity="0.30196078"
       color="#0099e5"
       opacity="0.14901961"
       empspacing="5"
       enabled="true"
       visible="true"
       dotted="false" />
    <inkscape:page
       x="5.7480924e-13"
       y="0"
       width="1428.4564"
       height="889.90839"
       id="page2"
       margin="0"
       bleed="0" />
  </sodipodi:namedview>
  <defs
     id="defs1">
    <pattern
       inkscape:collect="always"
       xlink:href="#pattern35"
       preserveAspectRatio="xMidYMid"
       id="pattern37"
       patternTransform="matrix(0.02821804,0,0,0.02821804,1300.1703,522.36364)"
       x="0"
       y="0" />
    <pattern
       patternUnits="userSpaceOnUse"
       width="755.90536"
       height="755.90434"
       patternTransform="translate(2078.7402,1133.8583)"
       preserveAspectRatio="xMidYMid"
       id="pattern35"
       inkscape:label="pattern35">
      <path
         id="path29"
         style="baseline-shift:baseline;display:inline;overflow:visible;opacity:1;vector-effect:none;fill:#4b0730;fill-opacity:1;stroke-width:3.77953;enable-background:accumulate;stop-color:#000000;stop-opacity:1"
         d="m 47.244737,0 c 0,17.264542 1.350387,34.390261 3.992504,51.23622 C 34.391169,48.594066 17.264957,47.243717 3.4015748e-4,47.243717 v 31.49605 C 19.689978,78.739767 39.178583,80.67995 58.210847,84.454602 c 12.079295,2.395653 23.974904,5.530431 35.621367,9.376932 13.802386,4.558564 27.255046,10.116886 40.249286,16.630186 23.56751,11.8131 45.62706,26.76722 65.53115,44.594 4.07985,3.65405 8.0691,7.42882 11.9622,11.32192 3.89314,3.89314 7.66791,7.88239 11.32196,11.96224 l 3e-4,3e-4 v 3.4e-4 l 3.4e-4,3.4e-4 c 17.82644,19.90383 32.78045,41.96334 44.59336,65.53047 6.51326,12.99421 12.07162,26.4466 16.63015,40.24898 3.8465,11.64647 6.98131,23.54204 9.37697,35.62133 3.77457,19.03223 5.71483,38.52061 5.71483,58.21021 h 31.49571 c 0,-17.26454 -1.35008,-34.39026 -3.9922,-51.23622 16.84607,2.64215 33.97198,3.99246 51.2366,3.99246 17.26458,0 34.39053,-1.35031 51.23656,-3.99246 -2.64212,16.84596 -3.9922,33.97168 -3.9922,51.23622 h 31.49575 c 0,-19.6896 1.94022,-39.17798 5.71483,-58.21021 2.39565,-12.07929 5.53047,-23.97486 9.37693,-35.62133 4.55849,-13.80238 10.11689,-27.25477 16.63015,-40.24898 11.81288,-23.56713 26.76696,-45.62664 44.59336,-65.53047 l 3.4e-4,-3.4e-4 v -3.4e-4 l 3e-4,-3e-4 c 3.65405,-4.07985 7.42885,-8.0691 11.32196,-11.96224 3.89306,-3.8931 7.88235,-7.66787 11.96224,-11.32192 19.90401,-17.82678 41.96357,-32.7809 65.53111,-44.594 12.99424,-6.5133 26.44687,-12.071622 40.24932,-16.630186 11.64647,-3.846501 23.54208,-6.981279 35.62133,-9.376932 19.03223,-3.774652 38.52091,-5.714835 58.21051,-5.714835 v -31.49605 c -17.26462,0 -34.39083,1.350349 -51.2369,3.992503 2.64215,-16.845959 3.9925,-33.971678 3.9925,-51.23622 h -31.49601 c 0,19.6896 -1.94029,39.177978 -5.71483,58.210167 -11.85755,3.132624 -23.51959,6.919257 -34.93323,11.337902 C 642.48525,47.363981 645.66886,24.04834 645.66886,0 h -31.49601 c 0,31.003502 -5.94531,60.594822 -16.76009,87.698419 C 574.15272,100.39835 552.34821,115.93247 532.53883,134.07693 563.75751,98.1312 582.67718,51.232101 582.67718,0 h -31.49609 c 0,95.857739 -77.37052,173.22792 -173.22822,173.22792 C 282.09513,173.22792 204.72461,95.857739 204.72461,0 h -31.49605 c 0,51.232101 18.9196,98.1312 50.13827,134.07693 C 203.55749,115.93247 181.75298,100.39835 158.4929,87.698419 147.67812,60.594822 141.73285,31.003502 141.73285,0 H 110.2368 c 0,24.04834 3.18365,47.363981 9.15201,69.548069 C 107.97517,65.129424 96.313172,61.342791 84.455622,58.210167 80.681008,39.177978 78.74075,19.6896 78.74075,0 Z M 236.22066,0 c 0,78.089915 63.64226,141.73187 141.73221,141.73187 78.08995,0 141.73221,-63.641955 141.73221,-141.73187 h -31.49609 c 0,61.068208 -49.16788,110.23582 -110.23612,110.23582 C 316.88462,110.23582 267.71671,61.068208 267.71671,0 Z m 62.9921,0 c 0,43.300384 35.43969,78.739767 78.74011,78.739767 43.30038,0 78.74011,-35.439383 78.74011,-78.739767 h -31.49605 c 0,26.278677 -20.96538,47.243717 -47.24406,47.243717 -26.27872,0 -47.2441,-20.96504 -47.2441,-47.243717 z M 3.4015748e-4,110.23582 v 31.49605 C 31.003843,141.73187 60.595465,147.67714 87.699099,158.49192 c 24.812601,9.90066 47.540111,23.88261 67.357301,41.12005 8.29096,7.21168 16.07248,14.9932 23.28416,23.28416 17.23744,19.81719 31.21905,42.54466 41.11971,67.3573 10.81478,27.1036 16.76005,56.69492 16.76005,87.69842 h 31.49605 c 0,-24.04838 -3.18361,-47.36402 -9.15201,-69.54807 -3.80194,-14.1315 -8.7337,-27.80383 -14.69235,-40.91365 C 232.425,242.3051 217.18862,219.19593 198.89454,198.89386 192.01179,192.69184 185.46225,186.12903 179.25332,179.25264 158.90219,160.8768 135.73168,145.56586 110.4624,134.08052 97.35258,128.12186 83.680252,123.19007 69.548712,119.38813 47.364661,113.41973 24.048718,110.23582 3.4015748e-4,110.23582 Z m 755.90501984252,0 c -24.04842,0 -47.36432,3.18391 -69.54837,9.15231 -14.1315,3.80194 -27.80387,8.73373 -40.91369,14.69239 -25.26932,11.48534 -48.43979,26.79628 -68.79088,45.17212 -6.20901,6.87639 -12.75847,13.4392 -19.64122,19.64122 -18.29401,20.30207 -33.53046,43.41124 -44.97751,68.59627 -5.95865,13.10982 -10.89037,26.78215 -14.69231,40.91365 -5.96837,22.18405 -9.15205,45.49969 -9.15205,69.54807 h 31.49605 c 0,-31.0035 5.94527,-60.59482 16.76005,-87.69842 9.90066,-24.81264 23.88231,-47.54011 41.11975,-67.3573 7.21164,-8.29096 14.99316,-16.07248 23.28412,-23.28416 19.81716,-17.23744 42.54474,-31.21939 67.3573,-41.12005 27.10364,-10.81478 56.6953,-16.76005 87.69876,-16.76005 z M 243.8756,154.58566 c 35.9458,31.21867 82.84509,50.13827 134.07727,50.13827 51.23214,0 98.13146,-18.9196 134.07723,-50.13827 -18.14449,19.80938 -33.67858,41.61389 -46.37851,64.87393 9.30455,-3.7127 18.31612,-7.99914 26.99089,-12.81604 -8.67477,4.81697 -17.68634,9.10368 -26.99089,12.81638 -27.10363,10.81485 -56.6951,16.76005 -87.69872,16.76005 -31.00362,0 -60.59509,-5.9452 -87.69876,-16.76005 -9.30455,-3.7127 -18.31612,-7.99941 -26.99085,-12.81638 8.67473,4.8169 17.6863,9.10334 26.99085,12.81604 -12.69997,-23.26004 -28.23402,-45.06455 -46.37851,-64.87393 z M 3.4015748e-4,173.22792 v 31.49601 C 95.858079,204.72393 173.22856,282.09411 173.22856,377.95185 h 31.49605 c 0,-51.2321 -18.91926,-98.1309 -50.13793,-134.07659 -3.55857,-3.2595 -7.05278,-6.60325 -10.47949,-10.02996 -3.42656,-3.42655 -6.77019,-6.92065 -10.02958,-10.47915 C 98.131805,192.14751 51.232479,173.22792 3.4015748e-4,173.22792 Z m 755.90501984252,0 c -51.2321,0 -98.13143,18.91959 -134.07727,50.13823 -3.25938,3.5585 -6.60302,7.0526 -10.02958,10.47915 -3.42671,3.42671 -6.92088,6.77046 -10.47949,10.02996 -31.21864,35.94569 -50.13793,82.84449 -50.13793,134.07659 h 31.49609 c 0,-95.85774 77.37044,-173.22792 173.22818,-173.22792 z M 3.4015748e-4,236.21998 v 31.49605 C 61.06851,267.71603 110.2365,316.88364 110.2365,377.95185 h 31.49605 c 0,-78.08992 -63.642333,-141.73187 -141.73220984252,-141.73187 z m 755.90501984252,0 c -78.08988,0 -141.73217,63.64195 -141.73217,141.73187 h 31.49605 c 0,-61.06821 49.16795,-110.23582 110.23612,-110.23582 z m -447.5009,22.34374 c 22.18409,5.96836 45.49999,9.15231 69.54841,9.15231 24.04838,0 47.36432,-3.18395 69.54837,-9.15231 -4.41861,11.4136 -8.20528,23.07598 -11.33786,34.93353 -19.03227,3.77461 -38.52087,5.71483 -58.21051,5.71483 -19.68964,0 -39.17828,-1.94022 -58.21055,-5.71483 -3.13258,-11.85755 -6.91925,-23.51993 -11.33786,-34.93353 z M 3.4015748e-4,299.21208 v 31.49601 C 26.279017,330.70809 47.244397,351.67317 47.244397,377.95185 h 31.49605 c 0,-43.30039 -35.439723,-78.73977 -78.74010684252,-78.73977 z m 755.90501984252,0 c -43.30042,0 -78.74011,35.43938 -78.74011,78.73977 h 31.49609 c 0,-26.27868 20.96531,-47.24376 47.24402,-47.24376 z M 47.244094,377.95249 c 0,26.27868 -20.965379,47.24376 -47.244094,47.24376 v 31.49605 c 43.300422,0 78.740107,-35.43939 78.740107,-78.73981 z m 62.992066,0 C 110.23616,439.02074 61.068208,488.18835 0,488.18835 v 31.49601 c 78.089915,0 141.73221,-63.64192 141.73221,-141.73187 z m 62.9921,0 C 173.22826,473.81027 95.857739,551.18041 0,551.18041 v 31.49605 c 51.232139,0 98.131465,-18.91963 134.07727,-50.13827 3.25939,-3.55846 6.60302,-7.05256 10.02962,-10.47915 3.42667,-3.42667 6.92088,-6.77042 10.47945,-10.02993 31.21867,-35.94572 50.13797,-82.84448 50.13797,-134.07662 z m 62.99176,0 c 0,31.0035 -5.94527,60.59482 -16.76009,87.69846 -9.90062,24.8126 -23.88227,47.54011 -41.11971,67.3573 -7.21168,8.29096 -14.99316,16.07248 -23.28416,23.28412 -19.81716,17.23748 -42.5447,31.21943 -67.357301,41.12009 C 60.595162,608.22724 31.003502,614.17247 0,614.17247 v 31.49609 c 24.048416,0 47.364321,-3.18395 69.548409,-9.15235 14.131503,-3.80194 27.80383,-8.734 40.913651,-14.69265 25.26932,-11.48534 48.43979,-26.79606 68.79092,-45.17182 6.20897,-6.8764 12.75847,-13.43924 19.64126,-19.64126 18.29404,-20.30203 33.53042,-43.41124 44.97747,-68.59623 5.95865,-13.10986 10.89041,-26.78215 14.69235,-40.91369 5.96836,-22.18405 9.15201,-45.49969 9.15201,-69.54807 z m 62.9924,0 c 0,19.6896 -1.94026,39.17802 -5.71483,58.21021 -2.39566,12.07929 -5.53043,23.9749 -9.37693,35.62136 -4.55853,13.80235 -10.11689,27.25474 -16.63019,40.24895 -11.81291,23.56713 -26.76692,45.62634 -44.59336,65.5302 l -3e-4,6.5e-4 v 3e-4 l -3.4e-4,3.4e-4 c -3.65405,4.07977 -7.42882,8.06884 -11.32192,11.9619 -3.89314,3.89318 -7.88239,7.66821 -11.96224,11.32226 -19.90405,17.82682 -41.96364,32.78086 -65.53115,44.59396 -12.99424,6.5133 -26.44687,12.07166 -40.249286,16.63019 -11.646463,3.8465 -23.542035,6.98128 -35.621329,9.37693 C 39.178243,675.22435 19.689638,677.16457 0,677.16457 v 31.49609 c 17.264617,0 34.390866,-1.35069 51.236901,-3.99288 -2.642117,16.846 -3.992504,33.97202 -3.992504,51.23656 h 31.49605 c 0,-19.6896 1.940221,-39.17794 5.714835,-58.21017 11.857549,-3.13266 23.519548,-6.91922 34.933188,-11.33786 -5.96836,22.18401 -9.15197,45.49969 -9.15197,69.54803 h 31.49605 c 0,-31.00346 5.94527,-60.59509 16.76005,-87.69876 23.26004,-12.69993 45.06459,-28.23401 64.87393,-46.37851 -31.21867,35.94577 -50.13827,82.84517 -50.13827,134.07727 h 31.49605 c 0,-95.85774 77.37048,-173.22788 173.22822,-173.22788 95.85774,0 173.22826,77.37014 173.22826,173.22788 h 31.49601 c 0,-51.2321 -18.9196,-98.1315 -50.13827,-134.07727 19.80938,18.1445 41.61385,33.67858 64.87393,46.37851 10.81478,27.10367 16.76009,56.6953 16.76009,87.69876 h 31.49601 c 0,-24.04834 -3.18361,-47.36402 -9.15197,-69.54803 11.41364,4.41864 23.07567,8.2052 34.93322,11.33786 3.77454,19.03223 5.71484,38.52057 5.71484,58.21017 h 31.49601 c 0,-17.26454 -1.35039,-34.39056 -3.9925,-51.23656 16.84607,2.64219 33.97228,3.99288 51.2369,3.99288 v -31.49609 c -19.6896,0 -39.17828,-1.94022 -58.21051,-5.71483 -12.07929,-2.39565 -23.9749,-5.53043 -35.62137,-9.37693 -13.80241,-4.55853 -27.25508,-10.11689 -40.24932,-16.63019 -23.56751,-11.8131 -45.62706,-26.76714 -65.53111,-44.59396 -4.07985,-3.65405 -8.06914,-7.42908 -11.96224,-11.32226 -3.89311,-3.89306 -7.66787,-7.88213 -11.32192,-11.9619 l -3.4e-4,-3.4e-4 v -3e-4 l -3e-4,-6.5e-4 c -17.82641,-19.90386 -32.78049,-41.96307 -44.59336,-65.5302 -6.51326,-12.99421 -12.07166,-26.4466 -16.63015,-40.24895 -3.8465,-11.64646 -6.98128,-23.54207 -9.37693,-35.62136 -3.77462,-19.03219 -5.71487,-38.52061 -5.71487,-58.21021 h -31.49571 c 0,17.26454 1.35004,34.3903 3.99216,51.23626 -16.84603,-2.64215 -33.97194,-3.9925 -51.23656,-3.9925 -17.26462,0 -34.39053,1.35035 -51.23656,3.9925 2.64212,-16.84596 3.99216,-33.97172 3.99216,-51.23626 z m 188.97657,0 c 0,24.04838 3.18365,47.36402 9.15201,69.54807 3.80194,14.13154 8.7337,27.80383 14.69239,40.91369 11.44701,25.18499 26.68342,48.2942 44.97743,68.59623 6.88275,6.20202 13.43229,12.76486 19.6413,19.64126 20.35105,18.37576 43.52156,33.68648 68.79088,45.17182 13.10982,5.95865 26.78218,10.89071 40.91369,14.69265 22.18401,5.9684 45.49995,9.15235 69.54837,9.15235 v -31.49609 c -31.0035,0 -60.59513,-5.94523 -87.69876,-16.76001 -24.81256,-9.90066 -47.54015,-23.88261 -67.3573,-41.12009 -8.29097,-7.21164 -16.07248,-14.99316 -23.28412,-23.28412 -17.23748,-19.81719 -31.21913,-42.5447 -41.11975,-67.3573 -10.81482,-27.10364 -16.76005,-56.69496 -16.76005,-87.69846 z m 62.9918,0 c 0,51.23214 18.91925,98.1309 50.13792,134.07662 3.55862,3.25951 7.05279,6.60326 10.47946,10.02993 3.4266,3.42659 6.7702,6.92069 10.02962,10.47915 35.9458,31.21864 82.84517,50.13827 134.07727,50.13827 v -31.49605 c -95.85774,0 -173.22826,-77.37014 -173.22826,-173.22792 z m 62.99206,0 c 0,78.08995 63.64229,141.73187 141.73221,141.73187 v -31.49601 c -61.06821,0 -110.2362,-49.16761 -110.2362,-110.23586 z m 62.9921,0 c 0,43.30042 35.43969,78.73981 78.74011,78.73981 v -31.49605 c -26.27872,0 -47.2441,-20.96508 -47.2441,-47.24376 z M 377.95253,456.6923 c 19.68964,0 39.17824,1.94018 58.21051,5.71483 3.13258,11.85755 6.91929,23.51989 11.3379,34.93353 -22.18409,-5.9684 -45.5,-9.15231 -69.54841,-9.15231 -24.04842,0 -47.36432,3.18391 -69.54841,9.15231 4.41861,-11.41364 8.20532,-23.07598 11.3379,-34.93353 19.03227,-3.77465 38.52087,-5.71483 58.21051,-5.71483 z m 0,62.99206 c 31.00361,0 60.59512,5.9452 87.69876,16.76009 9.30455,3.71266 18.31604,7.99941 26.99081,12.81638 -8.67477,-4.8169 -17.68626,-9.10337 -26.99081,-12.81608 12.69993,23.26008 28.23401,45.06421 46.37851,64.87359 -35.94577,-31.21867 -82.84513,-50.13793 -134.07727,-50.13793 -51.23214,0 -98.13147,18.91926 -134.07727,50.13793 18.14453,-19.80938 33.67858,-41.61351 46.37851,-64.87359 -9.30455,3.71271 -18.31612,7.99918 -26.99082,12.81608 8.6747,-4.81697 17.68627,-9.10372 26.99082,-12.81638 27.10371,-10.81489 56.69514,-16.76009 87.69876,-16.76009 z m 0,94.48811 c -78.08995,0 -141.73221,63.64192 -141.73221,141.73187 h 31.49605 c 0,-61.06825 49.16791,-110.23578 110.23616,-110.23578 61.06824,0 110.23616,49.16753 110.23616,110.23578 h 31.49601 c 0,-78.08995 -63.64222,-141.73187 -141.73217,-141.73187 z m 0,62.9921 c -43.30042,0 -78.74011,35.43939 -78.74011,78.73977 h 31.49605 c 0,-26.27868 20.96534,-47.24368 47.24406,-47.24368 26.27871,0 47.24406,20.965 47.24406,47.24368 h 31.49605 c 0,-43.30038 -35.43969,-78.73977 -78.74011,-78.73977 z" />
    </pattern>
  </defs>
  <g
     inkscape:label="Layer 1"
     inkscape:groupmode="layer"
     id="layer1"
     transform="translate(-600.00003,-55.045816)">
    <rect
       style="fill:#fee7b3;fill-opacity:1;stroke:none;stroke-width:49.9999;stroke-dasharray:none;stroke-opacity:1"
       id="rect36"
       width="1428.4564"
       height="889.90839"
       x="600"
       y="55.045815"
       inkscape:export-filename="rect36.svg"
       inkscape:export-xdpi="96"
       inkscape:export-ydpi="96" />
    <rect
       style="fill:url(#pattern37);fill-opacity:1;stroke:none;stroke-width:49.9999;stroke-dasharray:none;stroke-opacity:1"
       id="rect37"
       width="1428.4564"
       height="889.90839"
       x="600"
       y="55.045815" />
  </g>
</svg>
